<svg width="20" height="15" id="Layer_1" data-name="Layer 1" xmlns="http://www.w3.org/2000/svg" viewBox="0 0 20 15">
  <rect x="0" width="19.99" height="15" style="fill: #fff;"/>
  <path d="m19.99,2.93c-.2.06-.39.14-.56.25-.21.14-.42.26-.68.33-.24.07-.49.08-.74.03-.26-.06-.48-.17-.69-.3-.13-.08-.25-.16-.39-.22-.3-.14-.62-.19-.96-.13-.25.04-.47.14-.67.27-.19.12-.37.24-.59.32-.23.08-.46.12-.71.09-.24-.03-.45-.1-.65-.21-.16-.09-.31-.19-.46-.28-.37-.2-.77-.28-1.21-.17-.23.06-.44.17-.63.29-.19.13-.4.24-.63.31-.24.07-.49.08-.74.03-.26-.06-.48-.17-.69-.3-.13-.08-.25-.16-.39-.22-.3-.14-.62-.19-.96-.13-.26.05-.5.15-.71.29-.21.14-.42.26-.67.33-.24.07-.49.08-.74.03-.26-.06-.48-.17-.69-.3-.12-.08-.25-.15-.38-.22-.3-.14-.62-.19-.96-.13-.25.04-.47.14-.67.27-.18.12-.37.24-.58.31-.25.09-.51.13-.78.08-.28-.04-.52-.15-.74-.29-.15-.09-.31-.19-.47-.27-.07-.03-.15-.05-.22-.07v1.33c.2.05.38.13.55.24.18.12.36.23.57.3.24.09.49.12.76.09.27-.04.51-.14.73-.28.19-.12.37-.24.59-.32.27-.1.55-.12.83-.07.25.05.48.15.68.28.18.11.35.23.56.3.24.09.49.12.76.09.27-.04.52-.14.74-.28.19-.12.37-.24.59-.32.33-.12.67-.13,1.01-.03.2.06.38.16.56.27.13.08.25.16.39.22.24.11.5.17.78.15.32-.02.59-.13.84-.29.19-.12.37-.24.59-.32.27-.1.55-.13.84-.07.25.05.48.15.68.28.18.11.35.23.56.3.24.09.49.12.76.09.27-.04.51-.14.73-.28.19-.12.37-.24.59-.32.27-.1.55-.12.83-.07.25.05.48.15.68.28.18.11.36.23.56.3.37.13.74.13,1.1,0,.22-.08.4-.2.59-.32.16-.1.33-.17.52-.22v-1.33Z" style="fill: #2e42a5;"/>
  <path d="m19.99,10.1c-.2.06-.39.14-.56.25-.21.14-.42.26-.68.33-.24.07-.49.08-.74.03-.26-.06-.48-.17-.69-.3-.13-.08-.25-.16-.39-.22-.3-.14-.62-.19-.96-.13-.25.04-.47.14-.67.27-.19.12-.37.24-.59.32-.23.08-.46.12-.71.09-.24-.03-.45-.1-.65-.21-.16-.09-.31-.19-.46-.28-.37-.2-.77-.28-1.21-.17-.23.06-.44.17-.63.29-.19.13-.4.24-.63.31-.24.07-.49.08-.74.03-.26-.06-.48-.17-.69-.3-.13-.08-.25-.16-.39-.22-.3-.14-.62-.19-.96-.13-.26.05-.5.15-.71.29-.21.14-.42.26-.67.33-.24.07-.49.08-.74.03-.26-.06-.48-.17-.69-.3-.12-.08-.25-.15-.38-.22-.3-.14-.62-.19-.96-.13-.25.04-.47.14-.67.27-.18.12-.37.24-.58.31-.25.09-.51.13-.78.08-.28-.04-.52-.15-.74-.29-.15-.09-.31-.19-.47-.27-.07-.03-.15-.05-.22-.07v1.33c.2.05.38.13.55.24.18.12.36.23.57.3.24.09.49.12.76.09.27-.04.51-.14.73-.28.19-.12.37-.24.59-.32.27-.1.55-.12.83-.07.25.05.48.15.68.28.18.11.35.23.56.3.24.09.49.12.76.09.27-.04.52-.14.74-.28.19-.12.37-.24.59-.32.33-.12.67-.13,1.01-.03.2.06.38.16.56.27.13.08.25.16.39.22.24.11.5.17.78.15.32-.02.59-.13.84-.29.19-.12.37-.24.59-.32.27-.1.55-.13.84-.07.25.05.48.15.68.28.18.11.35.23.56.3.24.09.49.12.76.09.27-.04.51-.14.73-.28.19-.12.37-.24.59-.32.27-.1.55-.12.83-.07.25.05.48.15.68.28.18.11.35.23.56.3.37.13.74.13,1.1,0,.22-.08.4-.2.59-.32.16-.1.33-.17.52-.22v-1.33Z" style="fill: #2e42a5;"/>
  <g>
    <circle cx="10" cy="7.5" r="6.07" style="fill: #f60000;"/>
    <circle cx="10" cy="7.5" r="3.93" style="fill: #fff;"/>
  </g>
  <path d="m19.99,6.63c-.2.06-.39.14-.56.25-.21.14-.42.26-.68.33-.24.07-.49.08-.74.03-.26-.06-.48-.17-.69-.3-.13-.08-.25-.16-.39-.22-.3-.14-.62-.19-.96-.13-.25.04-.47.14-.67.27-.19.12-.37.24-.59.32-.23.08-.46.12-.71.09-.24-.03-.45-.1-.65-.21-.16-.09-.31-.19-.46-.28-.37-.2-.77-.28-1.21-.17-.23.06-.44.17-.63.29-.19.13-.4.24-.63.31-.24.07-.49.08-.74.03-.26-.06-.48-.17-.69-.3-.13-.08-.25-.16-.39-.22-.3-.14-.62-.19-.96-.13-.26.05-.5.15-.71.29-.21.14-.42.26-.67.33-.24.07-.49.08-.74.03-.26-.06-.48-.17-.69-.3-.12-.08-.25-.15-.38-.22-.3-.14-.62-.19-.96-.13-.25.04-.47.14-.67.27-.18.12-.37.24-.58.31-.25.09-.51.13-.78.08-.28-.04-.52-.15-.74-.29-.15-.09-.31-.19-.47-.27-.07-.03-.15-.05-.22-.07v1.33c.2.05.38.13.55.24.18.12.36.23.57.3.24.09.49.12.76.09.27-.04.51-.14.73-.28.19-.12.37-.24.59-.32.27-.1.55-.12.83-.07.25.05.48.15.68.28.18.11.35.23.56.3.24.09.49.12.76.09.27-.04.52-.14.74-.28.19-.12.37-.24.59-.32.33-.12.67-.13,1.01-.03.2.06.38.16.56.27.13.08.25.16.39.22.24.11.5.17.78.15.32-.02.59-.13.84-.29.19-.12.37-.24.59-.32.27-.1.55-.13.84-.07.25.05.48.15.68.28.18.11.35.23.56.3.24.09.49.12.76.09.27-.04.51-.14.73-.28.19-.12.37-.24.59-.32.27-.1.55-.12.83-.07.25.05.48.15.68.28.18.11.35.23.56.3.37.13.74.13,1.1,0,.22-.08.4-.2.59-.32.16-.1.33-.17.52-.22v-1.33Z" style="fill: #fff;"/>
  <path d="m19.99,5.36c-.2.06-.39.14-.56.25-.21.14-.42.26-.68.33-.24.07-.49.08-.74.03-.26-.06-.48-.17-.69-.3-.13-.08-.25-.16-.39-.22-.3-.14-.62-.19-.96-.13-.25.04-.47.14-.67.27-.19.12-.37.24-.59.32-.23.08-.46.12-.71.09-.24-.03-.45-.1-.65-.21-.16-.09-.31-.19-.46-.28-.37-.2-.77-.28-1.21-.17-.23.06-.44.17-.63.29-.19.13-.4.24-.63.31-.24.07-.49.08-.74.03-.26-.06-.48-.17-.69-.3-.13-.08-.25-.16-.39-.22-.3-.14-.62-.19-.96-.13-.26.05-.5.15-.71.29-.21.14-.42.26-.67.33-.24.07-.49.08-.74.03-.26-.06-.48-.17-.69-.3-.12-.08-.25-.15-.38-.22-.3-.14-.62-.19-.96-.13-.25.04-.47.14-.67.27-.18.12-.37.24-.58.31-.25.09-.51.13-.78.08-.28-.04-.52-.15-.74-.29-.15-.09-.31-.19-.47-.27-.07-.03-.15-.05-.22-.07v1.33c.2.05.38.13.55.24.18.12.36.23.57.3.24.09.49.12.76.09.27-.04.51-.14.73-.28.19-.12.37-.24.59-.32.27-.1.55-.12.83-.07.25.05.48.15.68.28.18.11.35.23.56.3.24.09.49.12.76.09.27-.04.52-.14.74-.28.19-.12.37-.24.59-.32.33-.12.67-.13,1.01-.03.2.06.38.16.56.27.13.08.25.16.39.22.24.11.5.17.78.15.32-.02.59-.13.84-.29.19-.12.37-.24.59-.32.27-.1.55-.13.84-.07.25.05.48.15.68.28.18.11.35.23.56.3.24.09.49.12.76.09.27-.04.51-.14.73-.28.19-.12.37-.24.59-.32.27-.1.55-.12.83-.07.25.05.48.15.68.28.18.11.36.23.56.3.37.13.74.13,1.1,0,.22-.08.4-.2.59-.32.16-.1.33-.17.52-.22v-1.33Z" style="fill: #2e42a5;"/>
  <path d="m19.99,7.76c-.2.06-.39.14-.56.25-.21.14-.42.26-.68.33-.24.07-.49.08-.74.03-.26-.06-.48-.17-.69-.3-.13-.08-.25-.16-.39-.22-.3-.14-.62-.19-.96-.13-.25.04-.47.14-.67.27-.19.12-.37.24-.59.32-.23.08-.46.12-.71.09-.24-.03-.45-.1-.65-.21-.16-.09-.31-.19-.46-.28-.37-.2-.77-.28-1.21-.17-.23.06-.44.17-.63.29-.19.13-.4.24-.63.31-.24.07-.49.08-.74.03-.26-.06-.48-.17-.69-.3-.13-.08-.25-.16-.39-.22-.3-.14-.62-.19-.96-.13-.26.05-.5.15-.71.29-.21.14-.42.26-.67.33-.24.07-.49.08-.74.03-.26-.06-.48-.17-.69-.3-.12-.08-.25-.15-.38-.22-.3-.14-.62-.19-.96-.13-.25.04-.47.14-.67.27-.18.12-.37.24-.58.31-.25.09-.51.13-.78.08-.28-.04-.52-.15-.74-.29-.15-.09-.31-.19-.47-.27-.07-.03-.15-.05-.22-.07v1.33c.2.05.38.13.55.24.18.12.36.23.57.3.24.09.49.12.76.09.27-.04.51-.14.73-.28.19-.12.37-.24.59-.32.27-.1.55-.12.83-.07.25.05.48.15.68.28.18.11.35.23.56.3.24.09.49.12.76.09.27-.04.52-.14.74-.28.19-.12.37-.24.59-.32.33-.12.67-.13,1.01-.03.2.06.38.16.56.27.13.08.25.16.39.22.24.11.5.17.78.15.32-.02.59-.13.84-.29.19-.12.37-.24.59-.32.27-.1.55-.13.84-.07.25.05.48.15.68.28.18.11.35.23.56.3.24.09.49.12.76.09.27-.04.51-.14.73-.28.19-.12.37-.24.59-.32.27-.1.55-.12.83-.07.25.05.48.15.68.28.18.11.36.23.56.3.37.13.74.13,1.1,0,.22-.08.4-.2.59-.32.16-.1.33-.17.52-.22v-1.33Z" style="fill: #2e42a5;"/>
</svg>
